<?xml version="1.0" encoding="UTF-8" standalone="no"?>
<!DOCTYPE svg PUBLIC "-//W3C//DTD SVG 1.1//EN" "http://www.w3.org/Graphics/SVG/1.1/DTD/svg11.dtd">
<svg width="100%" height="100%" viewBox="0 0 512 512" version="1.1" xmlns="http://www.w3.org/2000/svg" xmlns:xlink="http://www.w3.org/1999/xlink" xml:space="preserve" xmlns:serif="http://www.serif.com/" style="fill-rule:evenodd;clip-rule:evenodd;stroke-linejoin:round;stroke-miterlimit:2;">
    <g transform="matrix(1.05625,0,0,1.05625,-16.3146,-10.8215)">
        <g transform="matrix(1.70751,0,0,1.70751,-18.848,-32.3112)">
            <path d="M274.775,230.882C270.57,230.882 267.163,234.29 267.163,238.493L267.163,268.939L282.386,268.939L282.386,238.493C282.386,234.29 278.979,230.882 274.775,230.882Z" style="fill:rgb(255,167,84);fill-rule:nonzero;"/>
        </g>
        <g transform="matrix(1.70751,0,0,1.70751,-18.848,-32.3112)">
            <path d="M221.494,187.75L221.494,218.196C221.494,222.4 224.901,225.807 229.105,225.807C233.31,225.807 236.716,222.399 236.716,218.196L236.716,187.75L221.494,187.75Z" style="fill:rgb(255,203,99);fill-rule:nonzero;"/>
        </g>
        <g transform="matrix(1.70751,0,0,1.70751,-18.848,-32.3112)">
            <path d="M244.329,230.882C240.124,230.882 236.718,234.29 236.718,238.493L236.718,268.939L251.941,268.939L251.941,238.493C251.94,234.29 248.533,230.882 244.329,230.882Z" style="fill:rgb(255,203,99);fill-rule:nonzero;"/>
        </g>
        <g transform="matrix(1.70751,0,0,1.70751,-18.848,-32.3112)">
            <path d="M213.883,230.882C209.678,230.882 206.272,234.29 206.272,238.493L206.272,268.939L221.495,268.939L221.495,238.493C221.494,234.29 218.087,230.882 213.883,230.882Z" style="fill:rgb(255,203,99);fill-rule:nonzero;"/>
        </g>
        <g transform="matrix(1.70751,0,0,1.70751,-18.848,-32.3112)">
            <path d="M282.386,187.75L282.386,218.196C282.386,222.4 285.793,225.807 289.998,225.807C294.203,225.807 297.609,222.399 297.609,218.196L297.609,197.899L282.386,187.75Z" style="fill:rgb(255,167,84);fill-rule:nonzero;"/>
        </g>
        <g transform="matrix(1.70751,0,0,1.70751,-18.848,-32.3112)">
            <path d="M251.94,187.75L251.94,218.196C251.94,222.4 255.347,225.807 259.552,225.807C263.757,225.807 267.163,222.399 267.163,218.196L267.163,187.75L251.94,187.75Z" style="fill:rgb(255,203,99);fill-rule:nonzero;"/>
        </g>
        <g transform="matrix(1.70751,0,0,1.70751,-18.848,-32.3112)">
            <path d="M267.163,258.791L236.717,289.237L267.163,289.237C283.978,289.237 297.609,275.606 297.609,258.791L267.163,258.791Z" style="fill:rgb(255,203,99);fill-rule:nonzero;"/>
        </g>
        <g transform="matrix(1.70751,0,0,1.70751,-18.848,-32.3112)">
            <path d="M267.163,258.791L194.093,258.791C177.348,258.791 163.647,245.09 163.647,228.345L163.647,167.453L87.532,167.453L87.532,228.345C87.532,261.975 114.794,289.237 148.424,289.237L236.717,289.237C253.533,289.237 267.163,275.606 267.163,258.791Z" style="fill:rgb(255,226,168);fill-rule:nonzero;"/>
        </g>
        <g transform="matrix(1.70751,0,0,1.70751,-18.848,-32.3112)">
            <path d="M273.54,127.209L201.7,88.567C189.363,63.175 163.329,45.669 133.202,45.669L102.756,45.669L267.164,197.899L297.61,197.899L297.61,167.453C297.609,150.045 287.867,134.915 273.54,127.209Z" style="fill:rgb(255,203,99);fill-rule:nonzero;"/>
        </g>
        <g transform="matrix(1.70751,0,0,1.70751,-18.848,-32.3112)">
            <path d="M243.094,145.477L178.03,110.48C172.569,73.805 140.951,45.669 102.755,45.669C60.718,45.669 26.64,79.747 26.64,121.784L26.64,137.007C26.64,170.637 53.902,197.899 87.532,197.899L267.163,197.899L267.163,185.721C267.163,168.313 257.421,153.183 243.094,145.477Z" style="fill:rgb(255,226,168);fill-rule:nonzero;"/>
        </g>
        <g transform="matrix(1.70751,0,0,1.70751,-18.848,-32.3112)">
            <path d="M140.812,106.561L129.118,106.561C123.853,97.464 114.023,91.338 102.755,91.338C85.94,91.338 72.309,104.969 72.309,121.784C72.309,138.599 85.94,152.23 102.755,152.23L140.812,152.23C153.422,152.23 163.646,142.006 163.646,129.396C163.646,116.786 153.423,106.561 140.812,106.561Z" style="fill:rgb(164,94,67);fill-rule:nonzero;"/>
        </g>
        <g transform="matrix(1.70751,0,0,1.70751,-18.848,-32.3112)">
            <path d="M262.723,147.32L240.325,135.272C236.625,133.281 232.008,134.668 230.016,138.369C228.025,142.071 229.411,146.687 233.114,148.678L255.512,160.726C259.212,162.717 263.829,161.33 265.821,157.629C267.813,153.927 266.426,149.311 262.723,147.32Z" style="fill:rgb(164,94,67);fill-rule:nonzero;"/>
        </g>
    </g>
</svg>
